HIERARCHY
ROOT hip
{
	OFFSET 0.000000 0.000000 0.000000 
	CHANNELS 6 Xposition Yposition Zposition Xrotation Zrotation Yrotation
	JOINT abdomen
	{
		OFFSET 0.000000 3.402643 0.000000 
		CHANNELS 3 Xrotation Zrotation Yrotation
		JOINT chest
		{
			OFFSET 0.000000 8.438565 -0.680529 
			CHANNELS 3 Xrotation Zrotation Yrotation
			JOINT neck
			{
				OFFSET 0.000000 10.207942 -0.272212 
				CHANNELS 3 Xrotation Zrotation Yrotation
				JOINT head
				{
					OFFSET 0.000000 3.130431 0.000000 
					CHANNELS 3 Xrotation Zrotation Yrotation
					End Site
					{
						OFFSET 0.000000 3.130435 0.000000 
					}
				}
			}
			JOINT lCollar
			{
				OFFSET 3.470700 6.669187 -0.816635 
				CHANNELS 3 Yrotation Zrotation Xrotation
				JOINT lShldr
				{
					OFFSET 3.198488 0.000000 0.000000 
					CHANNELS 3 Zrotation Yrotation Xrotation
					JOINT lForeArm
					{
						OFFSET 10.139888 0.000000 0.000000 
						CHANNELS 3 Yrotation Zrotation Xrotation
						JOINT lHand
						{
							OFFSET 8.370511 0.000000 0.000000 
							CHANNELS 3 Zrotation Yrotation Xrotation
							End Site
							{
								OFFSET 4.083176 0.000000 0.000000 
							}
						}
					}
				}
			}
			JOINT rCollar
			{
				OFFSET -3.470700 6.669187 -0.816635 
				CHANNELS 3 Yrotation Zrotation Xrotation
				JOINT rShldr
				{
					OFFSET -3.198488 0.000000 0.000000 
					CHANNELS 3 Zrotation Yrotation Xrotation
					JOINT rForeArm
					{
						OFFSET -10.139888 0.000000 0.000000 
						CHANNELS 3 Yrotation Zrotation Xrotation
						JOINT rHand
						{
							OFFSET -8.370511 0.000000 0.000000 
							CHANNELS 3 Zrotation Yrotation Xrotation
							End Site
							{
								OFFSET -4.083176 0.000000 0.000000 
							}
						}
					}
				}
			}
		}
	}
	JOINT lThigh
	{
		OFFSET 5.308129 -1.633274 1.361059 
		CHANNELS 3 Xrotation Zrotation Yrotation
		JOINT lShin
		{
			OFFSET -2.041588 -20.007561 0.000000 
			CHANNELS 3 Xrotation Zrotation Yrotation
			JOINT lFoot
			{
				OFFSET 0.000000 -19.190928 -1.224953 
				CHANNELS 3 Xrotation Yrotation Zrotation
				End Site
				{
					OFFSET 0.000000 -2.449906 4.627600 
				}
			}
		}
	}
	JOINT rThigh
	{
		OFFSET -5.308129 -1.633274 1.361059 
		CHANNELS 3 Xrotation Zrotation Yrotation
		JOINT rShin
		{
			OFFSET 2.041588 -20.007561 0.000000 
			CHANNELS 3 Xrotation Zrotation Yrotation
			JOINT rFoot
			{
				OFFSET 0.000000 -19.190928 -1.224953 
				CHANNELS 3 Xrotation Yrotation Zrotation
				End Site
				{
					OFFSET 0.000000 -2.449906 4.627600 
				}
			}
		}
	}
}
MOTION
Frames: 8
Frame Time: 0.033333
2.300499 40.536758 2.300499 -12.747297 23.102697 79.764549 16.642836 12.953197 -19.639166 6.409188 -0.375973 5.860637 -8.544922 -0.001505 -0.009645 24.506138 3.662051 -73.337173 2.000000 -2.000000 0.000000 -68.795982 -111.521439 -2.383538 -42.578381 -0.624375 8.514235 -45.814991 48.601852 -77.567970 -2.000000 2.000000 0.000000 44.873600 -2.370357 -51.482510 41.321190 0.622744 8.502707 0.378117 -23.474983 -24.248436 -41.906059 4.041985 0.347960 38.115219 -0.841793 -2.916945 34.689835 -1.155411 -1.861852 -58.721581 -4.110677 -0.346023 38.751308 0.784910 2.910650 39.867123 1.284132 1.707947 
2.300499 40.538429 2.300499 -12.747297 23.102697 79.764549 16.014450 13.550419 -24.562395 6.409188 -0.375973 5.860637 -8.544922 -0.001505 -0.009645 25.029083 2.734458 -69.815689 2.000000 -2.000000 0.000000 -82.965225 -107.992577 12.655335 -50.394451 -0.583954 8.578379 -52.428749 52.075279 -84.429565 -2.000000 2.000000 0.000000 53.776577 -6.393448 -47.904560 60.294506 0.531118 8.671843 0.378117 -23.474983 -24.248436 -43.810806 4.041975 0.349414 38.553864 -0.812603 -2.958433 36.135376 -1.193292 -1.840607 -60.065216 -4.111241 -0.331704 38.751930 0.791012 2.893284 41.194607 1.336728 1.676672 
2.300499 40.540096 2.300499 -12.747297 23.102697 79.764549 16.227571 13.353195 -22.922136 6.409188 -0.375973 5.860637 -8.544922 -0.001505 -0.009645 24.857693 3.046209 -70.504608 2.000000 -2.000000 0.000000 -77.664764 -109.027046 7.061036 -47.781738 -0.592828 8.553483 -50.100342 50.981174 -82.017082 -2.000000 2.000000 0.000000 55.307617 -8.283755 -49.518696 61.373238 0.526022 8.686735 0.446418 -23.460678 -24.248743 -46.274529 4.042384 0.346587 40.935555 -0.695713 -3.075633 36.233063 -1.195497 -1.839172 -60.886887 -4.110734 -0.351120 38.790359 0.784753 2.912533 41.966431 1.353547 1.645102 
2.300499 40.530098 2.300499 -12.747297 23.102697 79.764549 16.119762 12.320045 -24.564728 6.409188 -0.375973 5.860637 -8.544922 -0.001505 -0.009645 25.333775 3.936503 -66.605133 2.000000 -2.000000 0.000000 -78.758881 -110.086273 9.865960 -46.698402 -0.599307 8.551153 -50.709484 51.438038 -82.787430 -2.000000 2.000000 0.000000 51.726925 -3.722925 -48.059452 48.105461 0.583642 8.557265 0.446418 -23.460678 -24.248743 -48.834297 4.052287 0.346025 45.014347 -0.481513 -3.263544 34.671127 -1.137804 -1.870450 -60.857594 -4.110814 -0.349718 38.858829 0.774986 2.912693 41.878738 1.345651 1.655790 
2.300499 40.429958 2.300499 -12.747297 23.102697 79.764549 14.787635 11.624432 -31.856224 6.409188 -0.375973 5.860637 -8.544922 -0.001505 -0.009645 27.059616 3.611856 -59.200855 2.000000 -2.000000 0.000000 -97.649734 -108.640259 31.386721 -53.095039 -0.568884 8.610074 -59.045353 54.743183 -91.410049 -2.000000 2.000000 0.000000 52.127846 0.339113 -41.837349 45.251831 0.598009 8.536802 0.016233 -23.549362 -24.244148 -51.179455 4.052047 0.332413 49.442699 -0.230278 -3.449516 32.571228 -1.081412 -1.899247 -60.505348 -4.111205 -0.342629 38.955711 0.775080 2.936942 41.419399 1.338073 1.681926 
2.300499 40.359829 2.300499 -12.747297 23.102697 79.764549 13.959120 12.183895 -30.973518 6.409188 -0.375973 5.860637 -8.544922 -0.001505 -0.009645 27.514992 2.872331 -62.635445 2.000000 -2.000000 0.000000 -98.507362 -107.416733 30.818670 -52.632957 -0.572010 8.602610 -57.528107 53.972309 -89.521866 -2.000000 2.000000 0.000000 55.823963 -5.133288 -42.275158 59.400761 0.536557 8.664564 -0.893536 -23.793764 -24.245600 -52.639988 4.051997 0.338706 52.932713 -0.023736 -3.606684 30.560205 -1.005736 -1.941900 -59.868473 -4.111164 -0.341589 39.014893 0.781261 2.922524 40.755882 1.309748 1.674917 
2.300499 40.545227 2.300499 -12.747297 23.102697 79.764549 16.642836 12.953197 -19.639166 6.409188 -0.375973 5.860637 -8.544922 -0.001505 -0.009645 24.506138 3.662051 -75.007095 2.000000 -2.000000 0.000000 -68.795982 -111.521439 -2.383538 -42.578381 -0.624375 8.514235 -45.814991 48.601852 -77.567970 -2.000000 2.000000 0.000000 57.511669 -11.391697 -52.724670 68.381599 0.515749 8.759230 -1.343903 -23.910990 -24.225582 -51.610970 4.051596 0.332524 52.620502 -0.045796 -3.602543 29.817444 -0.992066 -1.960952 -59.193218 -4.111234 -0.329453 39.015251 0.781254 2.912832 40.072277 1.288236 1.704569 
2.300499 40.535099 2.300499 -12.747297 23.102697 79.764549 16.642836 12.953197 -19.639166 6.409188 -0.375973 5.860637 -8.544922 -0.001505 -0.009645 24.506138 3.662051 -73.337173 2.000000 -2.000000 0.000000 -68.795982 -111.521439 -2.383538 -42.578381 -0.624375 8.514235 -45.814991 48.601852 -77.567970 -2.000000 2.000000 0.000000 44.873600 -2.370357 -51.482510 41.321190 0.622744 8.502707 0.378117 -23.474983 -24.248436 -41.906059 4.041985 0.347960 38.115219 -0.841794 -2.916945 34.689835 -1.155411 -1.861852 -58.721581 -4.110676 -0.346023 38.751308 0.784913 2.910650 39.867123 1.284133 1.707947 
